<svg width="17" height="28" viewBox="0 0 17 28" fill="none" xmlns="http://www.w3.org/2000/svg">
<path d="M0.980469 2.8291C0.980469 3.06608 1.07161 3.27572 1.25391 3.45801L12 14.2041L1.25391 24.9502C1.07161 25.1325 0.980469 25.3421 0.980469 25.5791C0.980469 25.8161 1.07161 26.0257 1.25391 26.208L2.62109 27.5752C2.80339 27.7575 3.01302 27.8486 3.25 27.8486C3.48698 27.8486 3.69661 27.7575 3.87891 27.5752L16.6211 14.833C16.8034 14.6507 16.8945 14.4411 16.8945 14.2041C16.8945 13.9671 16.8034 13.7575 16.6211 13.5752L3.87891 0.833008C3.69661 0.650716 3.48698 0.55957 3.25 0.55957C3.01302 0.55957 2.80339 0.650716 2.62109 0.833008L1.25391 2.2002C1.07161 2.38249 0.980469 2.59212 0.980469 2.8291Z" fill="#000000"/>
</svg>
