<svg width="18" height="18" viewBox="0 0 18 18" fill="none" xmlns="http://www.w3.org/2000/svg">
<path d="M17.487 14.14L13.422 10.444C13.2299 10.2693 12.9774 10.1762 12.7178 10.1842C12.4583 10.1922 12.212 10.3008 12.031 10.487L9.63801 12.948C9.06201 12.838 7.90401 12.477 6.71201 11.288C5.52001 10.095 5.15901 8.934 5.05201 8.362L7.51101 5.968C7.69742 5.78712 7.80614 5.54082 7.81417 5.2812C7.82219 5.02159 7.72889 4.76904 7.55401 4.57699L3.85901 0.512995C3.68405 0.320352 3.44089 0.203499 3.18116 0.187255C2.92143 0.17101 2.66561 0.256653 2.46801 0.425995L0.298008 2.28699C0.125119 2.46051 0.0219269 2.69145 0.0080073 2.93599C-0.0069927 3.18599 -0.292993 9.108 4.29901 13.702C8.30501 17.707 13.323 18 14.705 18C14.907 18 15.031 17.994 15.064 17.992C15.3085 17.9783 15.5393 17.8747 15.712 17.701L17.572 15.53C17.742 15.333 17.8283 15.0774 17.8124 14.8177C17.7965 14.558 17.6798 14.3148 17.487 14.14Z" fill="#313131"/>
</svg>
