<svg width="20" height="15" viewBox="0 0 20 15" fill="none" xmlns="http://www.w3.org/2000/svg">
<path d="M2.4505 0.600006H17.688C19.1255 0.600006 19.85 1.27851 19.85 2.65851V12.3415C19.85 13.71 19.1255 14.4 17.688 14.4H2.4505C1.013 14.4 0.288498 13.71 0.288498 12.3415V2.65851C0.288498 1.27851 1.013 0.600006 2.4505 0.600006ZM10.0635 10.49L17.8145 4.13051C18.0905 3.90051 18.309 3.37151 17.964 2.90001C17.6305 2.42851 17.021 2.41701 16.6185 2.70451L10.0635 7.14351L3.52 2.70451C3.1175 2.41701 2.508 2.42851 2.1745 2.90001C1.8295 3.37151 2.048 3.90051 2.324 4.13051L10.0635 10.49Z" fill="#313131"/>
</svg>
