<svg width="24" height="22" viewBox="0 0 24 22" fill="none" xmlns="http://www.w3.org/2000/svg">
<path d="M16.9 1.19995C17.7886 1.19981 18.644 1.53768 19.2927 2.14501C19.9413 2.75234 20.3347 3.58366 20.393 4.47035L20.4 4.69995V8.26995C21.1502 8.42338 21.8294 8.81847 22.3336 9.39474C22.8377 9.971 23.1391 10.6967 23.1916 11.4606L23.2 11.7V20.1C23.2003 20.2749 23.1351 20.4436 23.0173 20.5728C22.8994 20.7021 22.7374 20.7826 22.5632 20.7984C22.389 20.8142 22.2152 20.7642 22.076 20.6582C21.9368 20.5523 21.8424 20.3981 21.8112 20.226L21.8 20.1V16.6H2.19999V20.1C2.20031 20.2749 2.13513 20.4436 2.01728 20.5728C1.89943 20.7021 1.73745 20.7826 1.56324 20.7984C1.38903 20.8142 1.21521 20.7642 1.07602 20.6582C0.936833 20.5523 0.842352 20.3981 0.811188 20.226L0.799988 20.1V11.7C0.799823 10.8931 1.07844 10.111 1.58867 9.48592C2.09891 8.86088 2.80943 8.43132 3.59999 8.26995V4.69995C3.59985 3.81135 3.93771 2.95596 4.54504 2.30729C5.15237 1.65862 5.9837 1.26524 6.87039 1.20695L7.09999 1.19995H16.9ZM19.7 9.59995H4.29999C3.77817 9.59994 3.27504 9.79421 2.88864 10.1449C2.50223 10.4956 2.26023 10.9776 2.20979 11.497L2.19999 11.7V15.2H21.8V11.7C21.8 11.1781 21.6057 10.675 21.255 10.2886C20.9044 9.90219 20.4224 9.66019 19.903 9.60975L19.7 9.59995ZM16.9 2.59995H7.09999C6.57795 2.59998 6.07464 2.79444 5.6882 3.14542C5.30176 3.4964 5.0599 3.97873 5.00979 4.49835L4.99999 4.69995V8.19995H6.39999V7.49995C6.39999 7.3143 6.47374 7.13625 6.60501 7.00498C6.73629 6.8737 6.91434 6.79995 7.09999 6.79995H10.6C10.7856 6.79995 10.9637 6.8737 11.095 7.00498C11.2262 7.13625 11.3 7.3143 11.3 7.49995V8.19995H12.7V7.49995C12.7 7.3143 12.7737 7.13625 12.905 7.00498C13.0363 6.8737 13.2143 6.79995 13.4 6.79995H16.9C17.0856 6.79995 17.2637 6.8737 17.395 7.00498C17.5262 7.13625 17.6 7.3143 17.6 7.49995V8.19995H19V4.69995C19 4.17813 18.8057 3.67501 18.455 3.2886C18.1044 2.90219 17.6224 2.66019 17.103 2.60975L16.9 2.59995Z" fill="#005595" stroke="#005595" stroke-width="0.5"/>
</svg>
