<svg width="26" height="26" viewBox="0 0 26 26" fill="none" xmlns="http://www.w3.org/2000/svg">
<path d="M0 13H26M7.8 21.6667H18.2M7.8 21.6667C6.42087 21.6667 5.09823 21.1188 4.12304 20.1437C3.14786 19.1685 2.6 17.8458 2.6 16.4667V6.0667C2.6 4.68757 3.14786 3.36493 4.12304 2.38974C5.09823 1.41455 6.42087 0.866699 7.8 0.866699H11.2667V3.4667M7.8 21.6667V26M18.2 21.6667C19.5791 21.6667 20.9018 21.1188 21.877 20.1437C22.8521 19.1685 23.4 17.8458 23.4 16.4667V13M18.2 21.6667V26M8.66667 6.0667H13.8667" stroke="#005595" stroke-width="2"/>
</svg>
