<svg width="22" height="26" viewBox="0 0 22 26" fill="none" xmlns="http://www.w3.org/2000/svg">
<path d="M14.7305 13C14.7305 13.1477 14.7014 13.294 14.6449 13.4305C14.5883 13.567 14.5055 13.691 14.401 13.7955C14.2965 13.9 14.1725 13.9828 14.036 14.0394C13.8995 14.0959 13.7532 14.125 13.6055 14.125C13.4578 14.125 13.3115 14.0959 13.175 14.0394C13.0385 13.9828 12.9145 13.9 12.81 13.7955C12.7055 13.691 12.6227 13.567 12.5661 13.4305C12.5096 13.294 12.4805 13.1477 12.4805 13C12.4805 12.7016 12.599 12.4155 12.81 12.2045C13.021 11.9935 13.3071 11.875 13.6055 11.875C13.9039 11.875 14.19 11.9935 14.401 12.2045C14.612 12.4155 14.7305 12.7016 14.7305 13ZM10.4075 1.021C10.2982 0.997528 10.1851 0.998774 10.0764 1.02464C9.96768 1.05051 9.86611 1.10035 9.77913 1.17051C9.69215 1.24067 9.62194 1.32938 9.57365 1.43016C9.52535 1.53094 9.50019 1.64124 9.5 1.753V24.253C9.49997 24.3649 9.52496 24.4753 9.57316 24.5763C9.62136 24.6773 9.69153 24.7662 9.77855 24.8365C9.86556 24.9068 9.9672 24.9568 10.076 24.9828C10.1849 25.0087 10.2981 25.01 10.4075 24.9865L20.9075 22.735C21.0752 22.6986 21.2254 22.6058 21.333 22.472C21.4405 22.3383 21.499 22.1716 21.4985 22V4C21.4982 3.82866 21.4393 3.66259 21.3315 3.52941C21.2237 3.39623 21.0735 3.30398 20.906 3.268L10.406 1.0195L10.4075 1.021ZM11 23.3245V2.68L20 4.6075V21.3955L11 23.3245ZM8.003 23.497V21.997H2V4.0045H8.003V2.5045H1.25C1.05109 2.5045 0.860322 2.58351 0.71967 2.72417C0.579018 2.86482 0.5 3.05558 0.5 3.2545V22.747C0.5 22.9459 0.579018 23.1367 0.71967 23.2773C0.860322 23.418 1.05109 23.497 1.25 23.497H8.003Z" fill="#005595" stroke="#005595" stroke-width="0.5"/>
</svg>
