<svg width="28" height="30" viewBox="0 0 28 30" fill="none" xmlns="http://www.w3.org/2000/svg">
<path d="M1.13762 6.28687L1.12985 6.29281L1.12258 6.29934C1.00632 6.40371 0.912978 6.53071 0.848731 6.67262C0.784476 6.81454 0.7508 6.96813 0.75 7.12372V7.125C0.75 7.44396 0.891718 7.74324 1.15083 7.9747L1.15797 7.98107L1.16556 7.98687L4.30044 10.383C4.46567 10.5293 4.68263 10.6497 4.90373 10.734C5.12849 10.8197 5.3756 10.875 5.6011 10.875H17.9986C18.6429 10.875 19.181 10.3653 19.181 9.72112V4.52887C19.181 3.88465 18.6429 3.375 17.9986 3.375H5.6011C5.37593 3.375 5.12927 3.43015 4.90876 3.51255C4.69322 3.5931 4.4816 3.70756 4.32777 3.84462L1.13762 6.28687ZM5.20734 9.33783L5.19927 9.33062L5.19061 9.32414L2.28466 7.14814L5.21965 4.90061L5.22698 4.895L5.23387 4.88887C5.25694 4.86833 5.31971 4.83088 5.40795 4.79739C5.49582 4.76405 5.56833 4.75006 5.6009 4.75C5.60097 4.75 5.60104 4.75 5.6011 4.75L17.7845 4.77829V9.5H5.6011C5.56938 9.5 5.49718 9.48636 5.40744 9.45089C5.31969 9.41621 5.2468 9.3731 5.20734 9.33783ZM26.8702 15.8322L26.8774 15.8257C26.9937 15.7213 27.087 15.5943 27.1513 15.4524C27.2155 15.3105 27.2492 15.1569 27.25 15.0013L27.25 15.0013L27.25 14.9963C27.2476 14.8339 27.2099 14.674 27.1397 14.5272C27.0695 14.3805 26.9684 14.2505 26.8435 14.1454L26.8437 14.1452L26.8344 14.1381L23.6996 11.742C23.5343 11.5957 23.3174 11.4753 23.0963 11.391C22.8715 11.3053 22.6244 11.25 22.3989 11.25H10.0014C9.3571 11.25 8.81897 11.7597 8.81897 12.4039V17.597C8.81897 18.2405 9.35726 18.75 10.0014 18.75H22.3989C22.6241 18.75 22.8707 18.6948 23.0913 18.6125C23.3071 18.5319 23.5188 18.4174 23.673 18.2805L26.8624 15.8381L26.8702 15.8322ZM22.3879 17.375H10.2155V12.625H22.3989C22.4306 12.625 22.5028 12.6386 22.5926 12.6741C22.6803 12.7088 22.7532 12.7519 22.7927 12.7872L22.8007 12.7944L22.8094 12.8009L25.7153 14.9769L22.7821 17.223C22.7818 17.2233 22.7815 17.2235 22.7812 17.2237C22.6677 17.3088 22.5315 17.3614 22.3879 17.375ZM14.6983 28.5625V20.25C14.6983 20.1019 14.664 19.8573 14.5957 19.6453C14.5616 19.5396 14.5137 19.4245 14.4454 19.3306C14.3799 19.2407 14.2609 19.125 14.0816 19.125C13.8968 19.125 13.7111 19.1961 13.5701 19.3061C13.4302 19.4152 13.3017 19.5903 13.3017 19.8125V28.5625C13.3017 28.7845 13.4296 28.9595 13.5697 29.0689C13.7107 29.179 13.8964 29.25 14.0816 29.25C14.2798 29.25 14.4464 29.1677 14.5566 29.0238C14.6601 28.8885 14.6983 28.7201 14.6983 28.5625ZM14.7799 2.36675V1.4375C14.7799 1.25318 14.7048 1.07766 14.5732 0.949226C14.4418 0.820992 14.2648 0.75 14.0816 0.75C13.8983 0.75 13.7214 0.820992 13.59 0.949226C13.4584 1.07766 13.3833 1.25317 13.3833 1.4375V2.36675C13.3833 2.55108 13.4584 2.72659 13.59 2.85502C13.7214 2.98326 13.8983 3.05425 14.0816 3.05425C14.2648 3.05425 14.4418 2.98326 14.5732 2.85502C14.7048 2.72659 14.7799 2.55107 14.7799 2.36675Z" fill="#005595" stroke="#005595" stroke-width="0.5"/>
</svg>
