<svg width="24" height="29" viewBox="0 0 24 29" fill="none" xmlns="http://www.w3.org/2000/svg">
<path d="M20 14.999H22C22 9.869 18.127 6 12.99 6V8C17.052 8 20 10.943 20 14.999Z" fill="white"/>
<path d="M13 12.0002C15.103 12.0002 16 12.8972 16 15.0002H18C18 11.7752 16.225 10.0002 13 10.0002V12.0002ZM16.422 17.4432C16.2299 17.2686 15.9774 17.1754 15.7178 17.1835C15.4583 17.1915 15.212 17.3001 15.031 17.4862L12.638 19.9472C12.062 19.8372 10.904 19.4762 9.71201 18.2872C8.52001 17.0942 8.15901 15.9332 8.05201 15.3612L10.511 12.9672C10.6974 12.7864 10.8061 12.5401 10.8142 12.2804C10.8222 12.0208 10.7289 11.7683 10.554 11.5762L6.85901 7.51324C6.68405 7.3206 6.44089 7.20374 6.18116 7.1875C5.92143 7.17125 5.66561 7.2569 5.46801 7.42624L3.29801 9.28724C3.12512 9.46075 3.02193 9.69169 3.00801 9.93624C2.99301 10.1862 2.70701 16.1082 7.29901 20.7022C11.305 24.7072 16.323 25.0002 17.705 25.0002C17.907 25.0002 18.031 24.9942 18.064 24.9922C18.3085 24.9786 18.5393 24.8749 18.712 24.7012L20.572 22.5302C20.7415 22.3328 20.8273 22.077 20.8112 21.8173C20.7952 21.5576 20.6785 21.3143 20.486 21.1392L16.422 17.4432V17.4432Z" fill="white"/>
</svg>
