<svg width="25" height="29" viewBox="0 0 25 29" fill="none" xmlns="http://www.w3.org/2000/svg">
<path d="M12.5 5.5625C10.2216 5.56519 8.03733 6.47146 6.42627 8.08252C4.81521 9.69358 3.90894 11.8779 3.90625 14.1562C3.90352 16.0181 4.5117 17.8295 5.6375 19.3125C5.6375 19.3125 5.87187 19.6211 5.91016 19.6656L12.5 27.4375L19.093 19.6617C19.1273 19.6203 19.3625 19.3125 19.3625 19.3125L19.3633 19.3102C20.4885 17.8278 21.0964 16.0173 21.0937 14.1562C21.0911 11.8779 20.1848 9.69358 18.5737 8.08252C16.9627 6.47146 14.7784 5.56519 12.5 5.5625ZM12.5 17.2812C11.8819 17.2812 11.2777 17.098 10.7638 16.7546C10.2499 16.4112 9.8494 15.9232 9.61288 15.3521C9.37635 14.7811 9.31447 14.1528 9.43505 13.5466C9.55562 12.9404 9.85325 12.3836 10.2903 11.9465C10.7273 11.5095 11.2842 11.2119 11.8903 11.0913C12.4965 10.9707 13.1249 11.0326 13.6959 11.2691C14.2669 11.5057 14.755 11.9062 15.0983 12.4201C15.4417 12.934 15.625 13.5382 15.625 14.1562C15.624 14.9847 15.2944 15.779 14.7086 16.3648C14.1227 16.9506 13.3285 17.2802 12.5 17.2812Z" fill="white"/>
</svg>
