<svg width="20" height="20" viewBox="0 0 20 20" fill="none" xmlns="http://www.w3.org/2000/svg">
<path d="M10.0029 19.9999C4.48494 20.0028 -0.00286807 15.5185 1.37524e-06 9.99561C0.00287082 4.48134 4.46485 0.0142574 9.98852 -8.77268e-05C15.5065 -0.0144329 19.9943 4.46699 20 9.99274C20.0057 15.5128 15.5294 19.9942 10.0029 19.9999ZM1.66428 9.99274C1.65854 14.5832 5.39455 18.3273 9.98852 18.3359C14.5768 18.3445 18.3271 14.609 18.3386 10.0157C18.3472 5.41664 14.6026 1.66395 10.0029 1.66395C5.41177 1.66108 1.66715 5.39943 1.66428 9.99274Z" fill="#005595"/>
<path d="M9.40319 11.5278C9.40319 11.6282 9.40319 11.6999 9.40319 11.7716C9.40319 12.5635 9.40606 13.3525 9.40319 14.1443C9.40033 14.6579 9.01008 15.0567 8.51941 15.0596C8.03734 15.0624 7.64423 14.6808 7.61553 14.1788C7.61266 14.1271 7.61553 14.0726 7.61553 14.0181C7.61553 11.6052 7.61553 9.19239 7.61553 6.78241C7.61553 6.13688 7.92256 5.82415 8.56532 5.82702C9.37737 5.82989 10.1894 5.81554 10.9957 5.85858C11.429 5.88153 11.868 5.9676 12.2812 6.09671C13.1105 6.34918 13.6213 6.9316 13.8135 7.77796C13.9484 8.37472 13.9599 8.98008 13.8193 9.57684C13.5754 10.6097 12.8838 11.1921 11.8709 11.3843C11.3716 11.479 10.8551 11.4934 10.3472 11.5249C10.0431 11.545 9.73892 11.5278 9.40319 11.5278ZM9.4118 9.95842C10 9.95842 10.5653 9.98711 11.1249 9.94981C11.6385 9.91539 11.9599 9.61988 12.0574 9.13788C12.1119 8.87393 12.1234 8.59563 12.1005 8.32881C12.066 7.93863 11.8508 7.64885 11.4749 7.49966C10.8035 7.23284 10.1062 7.35047 9.4118 7.32465C9.4118 8.2284 9.4118 9.10345 9.4118 9.95842Z" fill="#005595"/>
</svg>
