<svg width="39" height="39" viewBox="0 0 39 39" fill="none" xmlns="http://www.w3.org/2000/svg">
<path d="M20.7221 38.9999C19.909 38.9999 19.0971 38.9999 18.284 38.9999C18.0348 38.9684 17.7865 38.9338 17.5372 38.9063C13.6828 38.4832 10.2252 37.0837 7.22855 34.6213C3.49217 31.5526 1.16101 27.6347 0.299155 22.8655C0.170946 22.1576 0.0976832 21.4395 0 20.7255C0 19.9129 0 19.1012 0 18.2885C0.0569818 17.8247 0.103788 17.3589 0.171963 16.8971C0.881184 12.0455 3.05362 7.96793 6.77982 4.78235C11.489 0.756634 16.9674 -0.759874 23.0563 0.355894C34.0456 2.36977 41.03 13.1704 38.4719 24.0332C36.7106 31.514 30.4181 37.4315 22.8629 38.7029C22.1527 38.8229 21.4364 38.9023 20.7221 38.9999ZM36.7207 19.5111C36.7238 10.0266 28.9875 2.2945 19.498 2.29959C10.0196 2.30569 2.30675 10.0062 2.28538 19.4836C2.26503 28.958 9.99624 36.7033 19.4888 36.7145C28.9753 36.7267 36.7167 28.9977 36.7207 19.5111Z" fill="#005595"/>
<path d="M18.3604 16.0753C18.3604 14.9717 18.3584 13.8682 18.3614 12.7646C18.3635 12.0272 18.8387 11.5125 19.5051 11.5136C20.1706 11.5146 20.6438 12.0302 20.6448 12.7697C20.6478 14.7358 20.6509 16.7018 20.6397 18.6679C20.6387 18.9323 20.7201 19.1124 20.9042 19.2954C22.9566 21.3348 24.9988 23.3832 27.0481 25.4266C27.3829 25.7602 27.5854 26.1355 27.4663 26.6196C27.2628 27.4394 26.3328 27.7659 25.6592 27.2574C25.5584 27.1811 25.4709 27.0875 25.3814 26.998C23.2181 24.8367 21.0599 22.6702 18.8885 20.517C18.5212 20.1529 18.3431 19.7562 18.3553 19.2344C18.3767 18.1817 18.3604 17.129 18.3604 16.0753Z" fill="#005595"/>
<path d="M20.6457 6.97009C20.6457 7.33727 20.6538 7.70444 20.6437 8.0706C20.6264 8.73783 20.1227 9.23621 19.4867 9.22706C18.866 9.2179 18.3735 8.7246 18.3644 8.07569C18.3532 7.31693 18.3512 6.55715 18.3654 5.79838C18.3766 5.15354 18.8803 4.66227 19.502 4.66126C20.1227 4.66024 20.6233 5.14947 20.6447 5.7933C20.6548 6.1859 20.6447 6.57851 20.6457 6.97009Z" fill="#005595"/>
<path d="M6.93243 18.3659C7.31197 18.3659 7.69253 18.3577 8.07207 18.3679C8.72024 18.3852 9.2117 18.8765 9.21679 19.4979C9.22188 20.1194 8.73448 20.632 8.0914 20.6452C7.31909 20.6605 6.54679 20.6605 5.77448 20.6452C5.13343 20.632 4.644 20.1173 4.64909 19.4979C4.65417 18.8785 5.14768 18.3852 5.79381 18.3679C6.17233 18.3577 6.55289 18.3659 6.93243 18.3659Z" fill="#005595"/>
<path d="M32.0502 20.6493C31.6829 20.6493 31.3155 20.6574 30.9492 20.6483C30.2817 20.632 29.7821 20.1295 29.7903 19.4938C29.7974 18.8744 30.2919 18.3791 30.9391 18.3689C31.6981 18.3567 32.4582 18.3557 33.2183 18.3689C33.8655 18.3801 34.3559 18.8805 34.359 19.502C34.361 20.1234 33.8736 20.6249 33.2285 20.6462C32.8357 20.6594 32.443 20.6493 32.0502 20.6493Z" fill="#005595"/>
<path d="M20.6457 32.0977C20.6457 32.4649 20.6539 32.832 20.6437 33.1982C20.6264 33.8654 20.1217 34.3638 19.4857 34.3536C18.865 34.3435 18.3736 33.8512 18.3634 33.2013C18.3522 32.4425 18.3502 31.6827 18.3644 30.924C18.3756 30.2791 18.8803 29.7889 19.502 29.7878C20.1227 29.7868 20.6233 30.2771 20.6437 30.9209C20.6549 31.3125 20.6447 31.7051 20.6457 32.0977Z" fill="#005595"/>
<path d="M30.3317 29.203C30.3296 29.8428 29.8351 30.333 29.1941 30.33C28.5612 30.3279 28.0514 29.8194 28.0554 29.1928C28.0585 28.5755 28.5866 28.0516 29.2032 28.0547C29.8321 28.0578 30.3337 28.5683 30.3317 29.203Z" fill="#005595"/>
<path d="M8.6734 9.80066C8.6795 9.16395 9.18013 8.67777 9.82219 8.68489C10.4561 8.69201 10.9618 9.20667 10.9486 9.83219C10.9364 10.4536 10.4042 10.9703 9.78963 10.9602C9.15978 10.949 8.66729 10.4374 8.6734 9.80066Z" fill="#005595"/>
<path d="M29.2164 8.68393C29.8493 8.69105 30.3418 9.19758 30.3337 9.83428C30.3255 10.4608 29.8015 10.9755 29.1829 10.9623C28.5683 10.9501 28.0422 10.409 28.0534 9.80072C28.0646 9.18028 28.5896 8.6758 29.2164 8.68393Z" fill="#005595"/>
<path d="M9.82225 30.332C9.18731 30.3391 8.67956 29.8448 8.67244 29.2132C8.66532 28.5846 9.16899 28.0628 9.79172 28.0526C10.4002 28.0425 10.9405 28.5693 10.9517 29.1826C10.9639 29.8021 10.4501 30.3249 9.82225 30.332Z" fill="#005595"/>
</svg>
