<svg width="15" height="27" viewBox="0 0 15 27" fill="none" xmlns="http://www.w3.org/2000/svg">
<path d="M2.79416 9.38242C2.79416 7.25895 2.7867 5.13548 2.79664 3.01201C2.80493 1.29621 4.09886 -0.0255352 5.72022 -2.48596e-06C7.30178 0.0255302 8.53106 1.32855 8.54764 3.01626C8.55924 4.20524 8.55012 5.39421 8.55012 6.58403C8.55012 9.642 8.55344 12.7 8.54432 15.7571C8.54349 16.0362 8.60815 16.2065 8.85185 16.3716C10.8097 17.701 11.7481 20.1947 11.1902 22.5241C10.6158 24.9259 8.70016 26.68 6.34853 26.9591C2.82483 27.3779 -0.194902 24.485 0.00983907 20.8441C0.117598 18.9231 0.988785 17.4091 2.54631 16.3307C2.73447 16.2005 2.79996 16.0745 2.79913 15.8482C2.79084 13.6932 2.79416 11.5374 2.79416 9.38242ZM7.42778 9.77477C7.42778 8.91432 7.42778 8.05472 7.42778 7.19427C7.42778 5.80358 7.43689 4.41205 7.42446 3.02137C7.41368 1.76856 6.38252 0.923431 5.23862 1.2094C4.43374 1.41025 3.91567 2.14134 3.91485 3.09201C3.91319 7.50917 3.90987 11.9263 3.92231 16.3435C3.92313 16.7154 3.83195 16.9103 3.49542 17.095C1.27725 18.3121 0.469886 21.1402 1.66518 23.4024C2.86793 25.6783 5.63981 26.5396 7.83892 25.2842C9.37075 24.4093 10.198 23.0322 10.2154 21.2347C10.2328 19.4117 9.42214 18.0099 7.86959 17.1095C7.5231 16.9086 7.41286 16.7078 7.417 16.306C7.44021 14.129 7.42778 11.9519 7.42778 9.77477Z" fill="#005595"/>
<path d="M10.6924 13.4872C12.1264 13.4872 13.5563 13.4872 15.0002 13.4872C15.0002 13.8608 15.0002 14.2174 15.0002 14.5987C13.5695 14.5987 12.1422 14.5987 10.6924 14.5987C10.6924 14.2327 10.6924 13.8693 10.6924 13.4872Z" fill="#005595"/>
<path d="M10.6836 4.56258C10.6836 4.18385 10.6836 3.82724 10.6836 3.45361C12.1193 3.45361 13.5417 3.45361 14.9898 3.45361C14.9898 3.81022 14.9898 4.17449 14.9898 4.56258C13.569 4.56258 12.1392 4.56258 10.6836 4.56258Z" fill="#005595"/>
<path d="M10.6943 8.47424C12.14 8.47424 13.5615 8.47424 14.9989 8.47424C14.9989 8.84617 14.9989 9.20278 14.9989 9.58407C13.5715 9.58407 12.1433 9.58407 10.6943 9.58407C10.6943 9.21469 10.6943 8.84362 10.6943 8.47424Z" fill="#005595"/>
<path d="M10.6865 12.0871C10.6865 11.705 10.6865 11.3492 10.6865 10.9764C11.5146 10.9764 12.3278 10.9764 13.1691 10.9764C13.1691 11.3382 13.1691 11.7016 13.1691 12.0871C12.3493 12.0871 11.5295 12.0871 10.6865 12.0871Z" fill="#005595"/>
<path d="M10.6934 5.94314C11.4783 5.94314 12.2401 5.93803 13.0019 5.9525C13.0674 5.95335 13.1818 6.07846 13.1876 6.15335C13.2091 6.44613 13.1967 6.74231 13.1967 7.06657C12.3545 7.06657 11.5364 7.06657 10.6942 7.06657C10.6934 6.71422 10.6934 6.34996 10.6934 5.94314Z" fill="#005595"/>
<path d="M4.95141 4.76526C5.43632 4.76526 5.88808 4.76526 6.39123 4.76526C6.39123 4.89633 6.39123 5.02825 6.39123 5.16102C6.39123 9.17391 6.39372 13.1859 6.3846 17.1988C6.38377 17.4593 6.4592 17.5597 6.69793 17.6346C8.36073 18.1538 9.46815 19.8151 9.27999 21.4815C9.06447 23.3982 7.67853 24.7795 5.85409 24.897C4.10012 25.0102 2.43566 23.6705 2.11487 21.8866C1.78082 20.0321 2.82193 18.2074 4.5585 17.6627C4.88095 17.5614 4.9597 17.4278 4.95887 17.0993C4.94726 13.1187 4.95141 9.13816 4.95141 5.15676C4.95141 5.03165 4.95141 4.90654 4.95141 4.76526ZM2.66195 20.9913C2.64952 21.5181 2.9098 21.8535 3.34498 21.8713C3.77435 21.8892 4.05867 21.5939 4.09846 21.0892C4.15648 20.3453 4.55022 19.8415 5.25728 19.6066C5.72893 19.4491 5.94528 19.101 5.83586 18.6746C5.72893 18.2559 5.34348 18.0533 4.87764 18.1699C3.6409 18.4814 2.69262 19.6883 2.66195 20.9913Z" fill="#005595"/>
</svg>
