<svg width="27" height="28" viewBox="0 0 27 28" fill="none" xmlns="http://www.w3.org/2000/svg">
<path d="M27 13.5395C26.1599 13.5395 25.3206 13.5395 24.4549 13.5395C24.3993 10.565 23.3611 7.99261 21.2635 5.89045C19.1659 3.78828 16.5974 2.74892 13.6276 2.69399C13.6276 1.82748 13.6276 0.986618 13.6276 0.145752C13.8908 0.145752 14.154 0.145752 14.4172 0.145752C14.8771 0.204349 15.3391 0.246832 15.7961 0.324473C18.3485 0.758822 20.6011 1.83334 22.5233 3.56928C24.8132 5.63702 26.2491 8.19477 26.7916 11.2418C26.8801 11.7406 26.9313 12.2467 26.9992 12.7492C27 13.0122 27 13.2759 27 13.5395Z" fill="#005595"/>
<path d="M0 8.10471C0.0175472 6.96354 0.397005 6.0106 1.24439 5.23346C1.87828 4.65262 2.46465 4.01977 3.08099 3.41989C3.78215 2.73796 4.5842 2.57609 5.33361 2.98041C5.57708 3.11152 5.80446 3.29024 6.00187 3.48434C7.02692 4.49587 8.041 5.51839 9.05727 6.53871C9.47694 6.95987 9.79425 7.43304 9.79864 8.05857C9.8023 8.63282 9.54274 9.09207 9.15744 9.4854C8.52428 10.1314 7.87942 10.765 7.23894 11.4045C6.94649 11.6967 6.93625 11.7597 7.10222 12.1435C7.63887 13.3836 8.4402 14.4464 9.31317 15.4616C10.6029 16.9609 12.0308 18.305 13.7131 19.3561C14.173 19.6432 14.668 19.8739 15.1469 20.1303C15.3772 20.2533 15.5439 20.1471 15.7047 19.9845C16.3401 19.3407 16.9784 18.6998 17.6166 18.0596C18.0831 17.5923 18.6205 17.2978 19.3092 17.3821C19.7252 17.4333 20.0871 17.6128 20.3796 17.9014C21.534 19.044 22.6944 20.1815 23.8196 21.3527C24.5675 22.1314 24.5799 23.1465 23.8525 23.9413C23.1067 24.7572 22.3317 25.5505 21.5216 26.302C20.702 27.0623 19.6748 27.2095 18.5964 27.1238C16.925 26.9905 15.3816 26.4316 13.8952 25.6999C8.84013 23.2125 4.9622 19.4696 2.16781 14.5899C1.30215 13.0774 0.61342 11.4821 0.242736 9.76813C0.124293 9.22245 0.0789623 8.65992 0 8.10471Z" fill="#005595"/>
<path d="M22.1935 13.5469C21.3556 13.5469 20.5331 13.5469 19.7208 13.5469C19.3333 9.86405 17.3154 7.8322 13.6239 7.43741C13.6239 6.63097 13.6239 5.80109 13.6239 4.97194C17.9924 4.8086 22.26 8.65036 22.1935 13.5469Z" fill="#005595"/>
</svg>
