<svg width="27" height="22" viewBox="0 0 27 22" fill="none" xmlns="http://www.w3.org/2000/svg">
<path d="M-8.40381e-05 1.57557C0.0245703 1.51046 0.0520422 1.44607 0.0731745 1.38024C0.324649 0.606181 0.839572 0.126552 1.62428 0.0202086C2.38645 -0.0832409 3.01267 0.214086 3.42898 0.884698C3.85656 1.5734 3.83261 2.28163 3.41489 2.97611C3.38319 3.0282 3.34868 3.07884 3.305 3.14684C3.93545 3.75886 3.66707 4.56764 3.7516 5.29685C4.96107 5.1623 5.97401 5.48784 6.76506 6.47386C7.27858 7.11409 7.86464 7.69283 8.37393 8.33595C8.63949 8.67089 8.83814 9.07384 9.00861 9.47172C9.09454 9.67211 9.16358 9.74011 9.37349 9.73939C13.2576 9.73288 17.1417 9.72999 21.0258 9.73794C21.9564 9.74011 22.8883 9.75748 23.8167 9.8139C24.4591 9.85224 25.0776 10.0389 25.6573 10.3377C26.5125 10.7789 26.9823 11.5009 26.9886 12.4747C27.0077 15.4436 26.9971 18.4132 26.995 21.3822C26.995 21.7923 26.7935 21.992 26.3899 21.9942C25.863 21.9971 25.3354 21.9956 24.8078 21.9949C24.3232 21.9942 24.1936 21.8386 24.0935 21.3604C23.947 20.6587 23.7716 19.9599 23.5554 19.2777C23.4518 18.9515 23.2313 18.6628 23.0559 18.3626C22.9432 18.1694 22.7791 18.1043 22.5495 18.105C18.5245 18.113 14.5002 18.1108 10.4752 18.1101C10.3611 18.1101 10.2455 18.113 10.1328 18.0985C9.87926 18.066 9.70245 17.8663 9.68766 17.6095C9.67145 17.3346 9.82572 17.1103 10.0864 17.0539C10.2054 17.0286 10.3308 17.0286 10.4526 17.0286C15.4793 17.0271 20.506 17.0279 25.5326 17.0279C25.6552 17.0279 25.7778 17.0279 25.9201 17.0279C25.9201 16.3963 25.9201 15.78 25.9201 15.1868C24.8402 15.1868 23.7625 15.1868 22.6847 15.1868C18.3963 15.1868 14.1078 15.1875 9.81938 15.1853C9.62637 15.1853 9.42914 15.1882 9.24247 15.1484C8.61977 15.0146 8.15557 14.4785 8.10767 13.8209C8.07808 13.4079 8.09499 12.9912 8.08935 12.5767C8.08794 12.4804 8.0816 12.3835 8.07667 12.2743C5.72817 12.2743 3.40433 12.2743 1.06639 12.2743C1.06639 13.8557 1.06639 15.4219 1.06639 17.0286C1.17205 17.0286 1.27278 17.0286 1.37422 17.0286C2.70133 17.0286 4.02843 17.0286 5.35483 17.0293C5.45134 17.0293 5.54925 17.0286 5.64364 17.0452C5.91977 17.0937 6.1008 17.3209 6.08953 17.5936C6.07826 17.8685 5.88314 18.0899 5.60279 18.1014C5.21677 18.1181 4.82935 18.1246 4.44333 18.105C4.21299 18.0935 4.06647 18.1817 3.93334 18.3604C3.47547 18.9768 3.23668 19.6901 3.06057 20.4287C2.98379 20.7521 2.9373 21.0827 2.88658 21.4118C2.82037 21.8379 2.65483 21.9934 2.23853 21.9949C1.72008 21.9971 1.20093 21.9826 0.683193 22C0.366209 22.0108 0.139389 21.9037 -0.00219727 21.6122C-0.00219727 15.7098 -0.00219727 9.80739 -0.00219727 3.90499C0.127414 3.63877 0.257025 3.37255 0.370435 3.13961C0.243642 2.82853 0.121074 2.52759 -0.00219727 2.22592C-8.40381e-05 2.0089 -8.40381e-05 1.79187 -8.40381e-05 1.57557ZM9.14526 10.8412C9.14526 10.9475 9.14526 11.0452 9.14526 11.1428C9.14526 11.901 9.14526 12.6584 9.14526 13.4165C9.14526 14.009 9.23754 14.1024 9.8229 14.1024C14.9707 14.1024 20.1178 14.1024 25.2657 14.1024C25.3361 14.1024 25.4065 14.1045 25.4763 14.1009C25.7912 14.085 25.9363 13.9338 25.9405 13.6061C25.9454 13.2632 25.9433 12.9203 25.9412 12.5774C25.937 11.9545 25.6608 11.5154 25.1029 11.2622C24.4161 10.9511 23.6913 10.8267 22.9489 10.8252C18.416 10.818 13.8838 10.8187 9.35095 10.8173C9.29178 10.818 9.23261 10.831 9.14526 10.8412ZM2.6809 11.1587C2.6809 11.0473 2.6809 10.9511 2.6809 10.8549C2.6809 10.1611 2.6809 9.46666 2.6809 8.7729C2.6809 7.30363 2.6809 5.83435 2.6809 4.36508C2.6809 3.9209 2.59425 3.83409 2.154 3.83264C1.95183 3.83192 1.75037 3.8312 1.54821 3.83264C1.14176 3.83554 1.05512 3.9238 1.05512 4.34121C1.05442 6.52233 1.05512 8.70417 1.05512 10.8853C1.05512 10.9728 1.05512 11.0604 1.05512 11.1587C1.60526 11.1587 2.12723 11.1587 2.6809 11.1587ZM8.08442 10.457C8.09569 9.8819 7.94636 9.44496 7.61669 9.07167C6.99752 8.37067 6.38257 7.66606 5.76762 6.96145C5.33934 6.47024 4.77863 6.33496 4.17143 6.34871C3.93334 6.35377 3.77625 6.51365 3.75089 6.75744C3.68327 7.40852 3.78541 8.00535 4.2475 8.51029C4.84202 9.16065 5.41964 9.82765 5.99162 10.499C6.42624 11.0097 6.97498 11.1949 7.61387 11.1674C7.87169 11.1559 8.0168 11.009 8.06117 10.7572C8.08231 10.635 8.0809 10.5069 8.08442 10.457ZM1.80813 20.8996C2.11807 19.9498 2.41815 19.0318 2.71119 18.1333C2.19415 18.1333 1.63062 18.1333 1.07344 18.1333C1.07344 19.0701 1.07344 19.9838 1.07344 20.8996C1.35238 20.8996 1.61301 20.8996 1.80813 20.8996ZM25.9243 20.9011C25.9243 19.9585 25.9243 19.0462 25.9243 18.1318C25.3446 18.1318 24.7824 18.1318 24.2865 18.1318C24.5838 19.0462 24.8811 19.9599 25.1868 20.9011C25.3896 20.9011 25.6496 20.9011 25.9243 20.9011ZM1.85533 2.74679C2.28713 2.7533 2.66681 2.3764 2.67878 1.93004C2.69005 1.48731 2.32447 1.09594 1.88844 1.08509C1.4355 1.07351 1.05723 1.44824 1.05512 1.90979C1.05301 2.35903 1.41719 2.73955 1.85533 2.74679ZM3.74526 11.1566C4.21158 11.1566 4.65254 11.1566 5.15196 11.1566C4.67367 10.6104 4.22989 10.104 3.74526 9.55058C3.74526 10.1279 3.74526 10.6292 3.74526 11.1566Z" fill="black"/>
</svg>
