<svg width="31" height="31" viewBox="0 0 31 31" fill="none" xmlns="http://www.w3.org/2000/svg">
<path d="M0 29.4854C0.714095 27.7015 1.42819 25.9169 2.14391 24.133C2.24106 23.8904 2.33498 23.6438 2.45237 23.4109C2.7147 22.8893 3.14542 22.6022 3.72997 22.5853C4.31534 22.5683 4.90151 22.5756 5.48688 22.5812C5.80506 22.5845 6.00099 22.7721 6.00342 23.0518C6.00585 23.3308 5.81154 23.5362 5.50064 23.5435C4.96547 23.5556 4.43031 23.5581 3.89514 23.5443C3.56562 23.5354 3.37778 23.6688 3.2531 23.9745C2.54467 25.7195 1.82248 27.4589 1.10596 29.2007C0.88007 29.7498 1.06952 30.032 1.66541 30.0328C5.14926 30.0336 8.63311 30.0336 12.117 30.0336C17.8022 30.0336 23.4874 30.0336 29.1735 30.0336C29.2747 30.0336 29.3759 30.0361 29.4763 30.0328C29.9313 30.0167 30.1377 29.7183 29.9669 29.2978C29.5281 28.215 29.0804 27.1355 28.6359 26.0551C28.3484 25.3565 28.0529 24.661 27.7768 23.9583C27.6603 23.6616 27.4692 23.5378 27.1534 23.5459C26.6385 23.5589 26.1236 23.5524 25.6087 23.5484C25.2265 23.5451 25.0176 23.3624 25.0225 23.0486C25.0273 22.7478 25.2273 22.5836 25.6022 22.5812C26.1479 22.5788 26.6928 22.5747 27.2384 22.5828C27.8878 22.5917 28.3679 22.8909 28.6181 23.4885C29.3872 25.3282 30.1531 27.1702 30.8939 29.0212C31.2777 29.9795 30.5879 30.9684 29.5524 30.9992C29.4415 31.0024 29.3305 31.0008 29.2188 31.0008C20.1096 31.0008 11.0013 31.0008 1.89211 31.0008C0.706809 31.0008 0.344903 30.7339 0.00161926 29.6083C0 29.5662 0 29.5258 0 29.4854Z" fill="#005595"/>
<path d="M23.8185 0C24.2638 0.119679 24.7245 0.198925 25.152 0.363888C28.1614 1.52752 29.4147 5.08068 27.7922 7.86644C26.4571 10.1573 25.0961 12.4336 23.744 14.7148C23.4469 15.217 23.055 15.2146 22.7555 14.7083C21.4058 12.4264 20.0432 10.1509 18.7138 7.85674C16.8525 4.64644 18.8344 0.583838 22.5013 0.0549875C22.5579 0.0469011 22.6122 0.0185987 22.6672 0C23.051 0 23.4348 0 23.8185 0ZM23.2485 13.6199C23.285 13.5771 23.3149 13.5504 23.3344 13.5172C24.565 11.435 25.8394 9.37617 27.0141 7.26239C28.5646 4.47178 26.5138 0.991392 23.3449 0.971985C21.6851 0.962281 20.3889 1.67146 19.5591 3.1076C18.7308 4.54132 18.7567 6.01789 19.5898 7.4508C20.7452 9.43682 21.9264 11.4083 23.098 13.3854C23.1425 13.4614 23.1927 13.5334 23.2485 13.6199Z" fill="#005595"/>
<path d="M8.26154 28.0234C9.23876 28.0234 10.1666 28.0234 11.139 28.0234C11.139 27.8973 11.139 27.7808 11.139 27.6636C11.139 25.9687 11.1657 24.2722 11.1293 22.5781C11.1066 21.5066 11.9745 20.9365 12.7599 20.9446C14.5977 20.9648 16.4364 20.9486 18.2751 20.9519C19.2636 20.9535 19.8879 21.5737 19.8895 22.553C19.8919 24.2584 19.8903 25.9638 19.8903 27.6693C19.8903 27.7776 19.8903 27.8868 19.8903 28.0137C20.8529 28.0137 21.7881 28.0137 22.775 28.0137C22.775 27.9029 22.775 27.7873 22.775 27.6717C22.775 24.1703 22.775 20.6689 22.775 17.1674C22.775 16.6669 22.9232 16.4421 23.2527 16.4397C23.5838 16.4372 23.7417 16.6693 23.7417 17.1626C23.7417 20.8662 23.7417 24.5689 23.7417 28.2725C23.7417 28.866 23.6065 28.9987 23.0074 28.9987C18.0071 28.9987 13.0076 28.9987 8.00731 28.9987C7.43329 28.9987 7.29565 28.8612 7.29565 28.2822C7.29565 21.3602 7.29484 14.4375 7.29565 7.51553C7.29565 6.47481 7.90773 5.86024 8.95296 5.85862C11.4078 5.85539 13.8618 5.85701 16.3166 5.85782C16.387 5.85782 16.4583 5.85701 16.5287 5.86509C16.7894 5.8942 16.9319 6.05836 16.9529 6.30257C16.974 6.55001 16.8469 6.73276 16.6007 6.79988C16.4866 6.83142 16.3611 6.82899 16.2413 6.82899C13.8375 6.83061 11.4329 6.8298 9.02907 6.83061C8.4097 6.83061 8.26235 6.9794 8.26235 7.59801C8.26235 14.2879 8.26235 20.9786 8.26235 27.6684C8.26154 27.7784 8.26154 27.8876 8.26154 28.0234ZM15.005 28.0194C15.005 25.9978 15.005 23.9713 15.005 21.9174C14.2658 21.9174 13.5314 21.9158 12.7979 21.9182C12.287 21.9198 12.1057 22.1001 12.1057 22.6072C12.1049 24.3102 12.1049 26.0132 12.1057 27.7153C12.1057 27.8124 12.1154 27.9102 12.1211 28.0194C13.0886 28.0194 14.0342 28.0194 15.005 28.0194ZM16.0097 28.0129C16.9958 28.0129 17.9488 28.0129 18.9009 28.0129C18.9098 27.9644 18.9195 27.9353 18.9195 27.9062C18.9203 26.0924 18.9236 24.2786 18.9195 22.4648C18.9187 22.1293 18.7179 21.9344 18.3633 21.9222C18.0006 21.9093 17.6371 21.9182 17.2744 21.9182C16.855 21.9182 16.4356 21.9182 16.0097 21.9182C16.0097 23.9713 16.0097 25.9832 16.0097 28.0129Z" fill="#005595"/>
<path d="M18.7042 18.3561C18.2095 18.3561 17.714 18.3593 17.2193 18.3553C16.8145 18.3512 16.6501 18.1903 16.6477 17.7844C16.6428 16.8666 16.6428 15.948 16.6477 15.0301C16.6501 14.625 16.8145 14.4625 17.2193 14.4609C18.2192 14.4576 19.2191 14.4568 20.219 14.4609C20.6019 14.4625 20.7784 14.6355 20.78 15.0156C20.7857 15.9439 20.7857 16.8722 20.78 17.8005C20.7776 18.1798 20.6003 18.3504 20.2182 18.3553C19.7138 18.3601 19.2086 18.3561 18.7042 18.3561ZM19.7955 17.3776C19.7955 16.7097 19.7955 16.0798 19.7955 15.4442C19.0652 15.4442 18.3536 15.4442 17.6403 15.4442C17.6403 16.1008 17.6403 16.738 17.6403 17.3776C18.3714 17.3776 19.0742 17.3776 19.7955 17.3776Z" fill="#005595"/>
<path d="M12.3194 18.3561C11.8247 18.3561 11.33 18.3593 10.8353 18.3553C10.4175 18.352 10.2532 18.1863 10.2524 17.7617C10.2491 16.8536 10.2483 15.9463 10.2524 15.0382C10.254 14.6323 10.4208 14.4625 10.8199 14.4609C11.8198 14.4568 12.8189 14.4576 13.8188 14.4609C14.2107 14.4625 14.3766 14.6226 14.3791 15.0075C14.3839 15.9455 14.3847 16.8836 14.3783 17.8216C14.3758 18.1887 14.2066 18.3504 13.8342 18.3545C13.329 18.3601 12.8238 18.3561 12.3194 18.3561ZM13.397 15.4523C12.6505 15.4523 11.9421 15.4523 11.2393 15.4523C11.2393 16.1097 11.2393 16.7388 11.2393 17.3704C11.9696 17.3704 12.6788 17.3704 13.397 17.3704C13.397 16.7186 13.397 16.0895 13.397 15.4523Z" fill="#005595"/>
<path d="M12.2999 12.4984C11.815 12.4984 11.3308 12.5024 10.8458 12.4976C10.4224 12.4927 10.2532 12.3278 10.2516 11.9121C10.2475 11.004 10.2475 10.0967 10.2516 9.18862C10.2532 8.76731 10.4224 8.5975 10.8386 8.59588C11.8279 8.59346 12.8173 8.59265 13.8067 8.59588C14.2107 8.5975 14.3766 8.76085 14.3783 9.16597C14.3823 10.0838 14.3823 11.0016 14.3783 11.9194C14.3766 12.3391 14.2163 12.4927 13.784 12.4968C13.2893 12.5024 12.7946 12.4984 12.2999 12.4984ZM13.4027 9.58242C12.6659 9.58242 11.9558 9.58242 11.232 9.58242C11.232 10.2326 11.232 10.8633 11.232 11.5094C11.9583 11.5094 12.6748 11.5094 13.4027 11.5094C13.4027 10.8585 13.4027 10.235 13.4027 9.58242Z" fill="#005595"/>
<path d="M17.612 11.5377C17.9714 11.5377 18.2929 11.5337 18.6135 11.5385C18.9754 11.5442 19.1907 11.7237 19.194 12.014C19.198 12.3051 18.9835 12.4919 18.6216 12.4959C18.1471 12.5016 17.6735 12.5032 17.199 12.4951C16.8145 12.4887 16.6501 12.3221 16.6477 11.9348C16.6428 11.0072 16.6428 10.0805 16.6477 9.15303C16.6493 8.80693 16.8258 8.6072 17.1124 8.5975C17.4112 8.58779 17.6047 8.79319 17.6095 9.15465C17.6168 9.82986 17.612 10.5051 17.612 11.1803C17.612 11.2895 17.612 11.397 17.612 11.5377Z" fill="#005595"/>
<path d="M20.4618 5.23759C20.4659 3.69713 21.7167 2.44698 23.2534 2.44617C24.7958 2.44536 26.0685 3.72705 26.0556 5.26589C26.0426 6.79584 24.7682 8.05247 23.2397 8.04276C21.6949 8.03225 20.4578 6.78371 20.4618 5.23759ZM21.4285 5.25538C21.4358 6.2678 22.2592 7.08291 23.2664 7.07563C24.2671 7.06835 25.0937 6.23222 25.088 5.23193C25.0824 4.23326 24.2404 3.40198 23.2429 3.41249C22.23 3.4222 21.4212 4.24377 21.4285 5.25538Z" fill="#005595"/>
</svg>
