<svg width="17" height="17" viewBox="0 0 17 17" fill="none" xmlns="http://www.w3.org/2000/svg">
<path d="M15.1993 10.0438C15.1993 10.14 15.1993 10.2065 15.1993 10.2727C15.1993 11.8703 15.2 13.4679 15.199 15.0652C15.1983 16.2154 14.4174 16.9983 13.2711 16.999C12.4292 16.9996 11.5872 16.9993 10.7449 16.999C10.3381 16.9986 10.1493 16.8078 10.1493 16.3952C10.1489 15.125 10.1496 13.8545 10.1489 12.5844C10.1486 11.9836 9.81354 11.6491 9.21186 11.6484C8.73531 11.6478 8.25911 11.6468 7.78256 11.6488C7.22393 11.6511 6.8802 11.9936 6.87954 12.551C6.87787 13.8268 6.8792 15.1026 6.87887 16.3784C6.87887 16.8139 6.69566 16.999 6.26617 16.999C5.42422 16.9993 4.58226 17 3.73997 16.999C2.61535 16.9976 1.83046 16.2107 1.82946 15.0816C1.82813 13.4786 1.82913 11.8753 1.82913 10.2724C1.82913 10.2062 1.82913 10.1397 1.82913 10.0445C1.75237 10.0445 1.68363 10.0448 1.61455 10.0445C0.931439 10.0415 0.36079 9.68023 0.125189 9.0724C-0.12643 8.42379 0.00138167 7.83701 0.48927 7.34413C1.53446 6.28818 2.58732 5.24026 3.63718 4.189C4.86725 2.95729 6.11634 1.74396 7.31937 0.486851C7.94141 -0.163422 9.07203 -0.162086 9.70508 0.482841C11.9613 2.78119 14.2416 5.05581 16.5292 7.32274C17.238 8.02514 17.1439 9.3297 16.2535 9.8286C16.0169 9.96126 15.7673 10.0395 15.4953 10.0435C15.4032 10.0448 15.3105 10.0438 15.1993 10.0438ZM11.1464 16.0008C11.8665 16.0008 12.5587 16.0008 13.2511 16.0008C13.8755 16.0008 14.2015 15.6737 14.2019 15.0465C14.2022 13.238 14.2015 11.4296 14.2022 9.62109C14.2022 9.24582 14.4018 9.048 14.7775 9.04633C15.0101 9.04533 15.243 9.04967 15.4756 9.04433C15.7279 9.03865 15.9302 8.87792 16.0016 8.63599C16.084 8.35696 15.9502 8.16014 15.7633 7.97335C13.5091 5.71945 11.2572 3.46354 9.00462 1.20797C8.65956 0.862446 8.3689 0.864116 8.0205 1.21264C6.01489 3.22094 4.00894 5.22924 2.00332 7.23753C1.72901 7.51221 1.45337 7.78522 1.18106 8.06157C0.999851 8.24535 0.946456 8.46456 1.05057 8.70282C1.15102 8.93272 1.33857 9.04566 1.59119 9.04566C1.7794 9.04566 1.96795 9.04566 2.15617 9.04566C2.6594 9.04566 2.82693 9.21141 2.82693 9.7093C2.82693 11.49 2.83894 13.2708 2.82025 15.0515C2.81391 15.658 3.25208 16.0236 3.766 16.0059C4.40773 15.9835 5.05112 16.0005 5.69386 16.0005C5.75226 16.0005 5.81066 16.0005 5.88207 16.0005C5.88207 15.9113 5.88207 15.8458 5.88207 15.78C5.8834 14.6539 5.87273 13.5277 5.88941 12.4016C5.90276 11.5154 6.6129 10.7372 7.49657 10.6777C8.17434 10.6323 8.85745 10.6683 9.53856 10.6703C9.59329 10.6703 9.64835 10.6837 9.70208 10.6961C10.5664 10.8936 11.1394 11.605 11.1451 12.5072C11.1517 13.5999 11.1467 14.693 11.1467 15.7857C11.1464 15.8511 11.1464 15.9166 11.1464 16.0008Z" fill="black"/>
</svg>
