<svg width="23" height="21" viewBox="0 0 23 21" fill="none" xmlns="http://www.w3.org/2000/svg">
<path d="M5.91262 1.14687C5.98876 0.301373 6.18905 0.00762244 6.67666 0.00123655C6.96205 -0.00259499 7.21418 0.108519 7.32936 0.365232C7.43302 0.595763 7.4567 0.862055 7.52069 1.13345C10.1552 1.13345 12.8261 1.13345 15.5355 1.13345C15.5355 1.01915 15.5316 0.903563 15.5361 0.787978C15.5553 0.319893 15.8855 -0.00961947 16.3225 -4.06306e-05C16.7474 0.00889962 17.0571 0.342243 17.0674 0.80075C17.0693 0.903563 17.068 1.00574 17.068 1.14623C17.1672 1.14623 17.251 1.14623 17.3342 1.14623C18.1328 1.14623 18.9308 1.14431 19.7294 1.14687C21.5685 1.15261 22.9948 2.56836 22.9967 4.40367C23.0006 8.84889 23.0006 13.2935 22.9967 17.7387C22.9954 19.5791 21.58 20.9961 19.7364 20.9974C14.2441 21.0012 8.75186 21.0012 3.25894 20.9974C1.41538 20.9961 0.00247975 19.5778 0.00119995 17.7361C-0.00135966 13.2992 -0.00071976 8.8623 0.00119995 4.42538C0.00183985 2.56262 1.4237 1.15134 3.29542 1.14814C4.07802 1.14687 4.85998 1.14814 5.64258 1.14814C5.72896 1.14687 5.81535 1.14687 5.91262 1.14687ZM1.53377 7.71539C1.53377 7.82012 1.53377 7.89931 1.53377 7.97849C1.53377 11.2129 1.53313 14.4468 1.53377 17.6812C1.53377 18.7981 2.23894 19.5037 3.35557 19.5044C8.7845 19.505 14.2134 19.505 19.6417 19.5044C20.759 19.5044 21.4642 18.7994 21.4642 17.6825C21.4648 14.448 21.4642 11.2142 21.4642 7.97977C21.4642 7.89547 21.4642 7.81054 21.4642 7.71603C14.8111 7.71539 8.18811 7.71539 1.53377 7.71539ZM21.4648 6.16362C21.4648 5.56973 21.4674 4.99756 21.4642 4.42538C21.459 3.40428 20.7347 2.68076 19.7121 2.67692C18.9058 2.67373 18.0995 2.67565 17.2926 2.67692C17.2242 2.67692 17.1551 2.6865 17.068 2.69289C17.068 2.81167 17.0699 2.91384 17.068 3.01538C17.0584 3.48666 16.7404 3.82319 16.3053 3.82255C15.8714 3.82255 15.5502 3.48602 15.5361 3.01474C15.5329 2.90682 15.5355 2.79953 15.5355 2.68842C12.8293 2.68842 10.1584 2.68842 7.4759 2.68842C7.4663 2.85701 7.47014 3.01602 7.44582 3.17055C7.38119 3.57861 7.03116 3.85193 6.63187 3.82064C6.24536 3.78999 5.94845 3.47452 5.93245 3.07285C5.92733 2.94832 5.93181 2.82252 5.93181 2.70247C5.88062 2.68906 5.85822 2.6782 5.83583 2.6782C4.93357 2.67756 4.0313 2.66351 3.12904 2.68331C2.38612 2.69991 1.67966 3.25676 1.59712 3.9905C1.51713 4.70253 1.57984 5.43052 1.57984 6.16362C8.18427 6.16362 14.8079 6.16362 21.4648 6.16362Z" fill="black"/>
</svg>
