<svg width="35" height="26" viewBox="0 0 35 26" fill="none" xmlns="http://www.w3.org/2000/svg">
<path d="M34.9999 23.1796C34.9074 23.4843 34.8149 23.7891 34.6951 24.1815C31.1772 20.3909 27.7047 16.6491 24.3143 12.9959C27.6918 9.35991 31.172 5.61358 34.6959 1.81934C34.8149 2.20907 34.9074 2.5138 34.9999 2.81854C34.9999 9.60677 34.9999 16.3932 34.9999 23.1796Z" fill="#005595"/>
<path d="M33.2199 0.329909C33.1266 0.435707 33.0529 0.524324 32.9733 0.607515C28.589 5.2165 24.2038 9.82367 19.8195 14.4326C18.8744 15.4264 17.7631 15.8143 16.4866 15.3233C16.032 15.1488 15.5859 14.8368 15.2409 14.476C10.8009 9.83994 6.38066 5.18394 1.95611 0.533366C1.90046 0.475494 1.85166 0.410388 1.7395 0.278367C2.16672 0.180708 2.53486 0.0893779 2.90643 0.0143249C3.028 -0.0100899 3.15642 0.00437811 3.28142 0.00437811C12.7589 0.00437811 22.2373 0.00528237 31.7148 0.00166535C32.2319 0.00166535 32.7276 0.0740056 33.2199 0.329909Z" fill="#005595"/>
<path d="M12.3284 14.4761C12.8686 15.0503 13.3275 15.5485 13.7975 16.0359C15.7341 18.0452 18.5328 18.2658 20.6321 16.5595C21.0182 16.2457 21.3547 15.8632 21.7057 15.5024C22.0062 15.1931 22.293 14.8694 22.6295 14.5059C26.1303 18.2785 29.6019 22.0203 33.0727 25.7603C32.8399 25.8154 32.4768 25.9086 32.1096 25.9836C31.9777 26.0107 31.8373 25.9945 31.7003 25.9945C22.2357 25.9945 12.771 25.9981 3.30548 25.9854C2.80463 25.9845 2.30379 25.8534 1.82092 25.7856C5.34053 21.9986 8.8139 18.2595 12.3284 14.4761Z" fill="#005595"/>
<path d="M0.22078 24.091C0.147152 23.6344 0.0110253 23.1777 0.0101691 22.7202C-0.00352916 16.2348 -0.00352916 9.74864 0.0110253 3.26333C0.0118814 2.80849 0.152289 2.35365 0.22763 1.89972C0.269581 1.88796 0.311532 1.87711 0.353483 1.86536C3.82686 5.60897 7.30023 9.35167 10.7017 13.0184C7.32591 16.6535 3.85168 20.3944 0.377455 24.1362C0.32523 24.1208 0.273005 24.1064 0.22078 24.091Z" fill="#005595"/>
</svg>
