<svg width="21" height="21" viewBox="0 0 21 21" fill="none" xmlns="http://www.w3.org/2000/svg">
<path d="M2.83073 0C5.12952 0 7.42831 0 9.7271 0C9.72301 0.0326975 9.71074 0.0653951 9.71074 0.10218C9.71074 1.00545 9.71074 1.90463 9.71074 2.8079C9.71074 2.85286 9.7271 2.89373 9.73528 2.94278C10.2016 2.86512 10.6515 2.79155 11.1219 2.7139C11.1219 3.69482 11.1219 4.66349 11.1219 5.65668C13.9566 5.65668 16.7666 5.65668 19.6054 5.65668C19.6054 10.3733 19.6054 15.0613 19.6054 19.7738C20.0839 19.7738 20.538 19.7738 20.9961 19.7738C20.9961 20.1907 20.9961 20.5913 20.9961 21C13.9852 21 6.99064 21 -0.00390625 21C-0.00390625 20.5913 -0.00390625 20.1785 -0.00390625 19.7698C0.458306 19.7698 0.920519 19.7698 1.40727 19.7698C1.40727 19.6676 1.40727 19.5899 1.40727 19.5082C1.40727 17.2929 1.40727 15.0817 1.40727 12.8665C1.40727 10.0913 1.40727 7.32016 1.40318 4.54496C1.40318 4.39373 1.42773 4.31608 1.60361 4.29564C2.00856 4.24659 2.40942 4.16485 2.82664 4.09128C2.83073 2.71798 2.83073 1.35695 2.83073 0ZM2.65484 5.37057C2.65484 10.1771 2.65484 14.9632 2.65484 19.7575C3.1825 19.7575 3.69789 19.7575 4.24191 19.7575C4.24191 18.8174 4.24191 17.8856 4.24191 16.9578C5.604 16.9578 6.94156 16.9578 8.29956 16.9578C8.29956 17.8978 8.29956 18.8256 8.29956 19.7575C8.83949 19.7575 9.35897 19.7575 9.88254 19.7575C9.88254 14.5586 9.88254 9.37602 9.88254 4.17302C7.46512 4.56948 5.05998 4.97003 2.65484 5.37057ZM11.1301 19.7534C13.5516 19.7534 15.9567 19.7534 18.3578 19.7534C18.3578 15.4578 18.3578 11.1785 18.3578 6.89918C15.9404 6.89918 13.5393 6.89918 11.1301 6.89918C11.1301 11.1907 11.1301 15.4659 11.1301 19.7534ZM4.07011 3.88692C5.54674 3.64169 7.01109 3.39646 8.46727 3.15531C8.46727 2.49728 8.46727 1.87193 8.46727 1.24251C6.99473 1.24251 5.53447 1.24251 4.07011 1.24251C4.07011 2.12534 4.07011 3 4.07011 3.88692ZM7.052 18.188C6.51207 18.188 5.99668 18.188 5.4772 18.188C5.4772 18.7193 5.4772 19.2343 5.4772 19.7575C6.00895 19.7575 6.52843 19.7575 7.052 19.7575C7.052 19.2262 7.052 18.7112 7.052 18.188Z" fill="#005595"/>
<path d="M7.07617 5.66077C7.48521 5.66077 7.87789 5.66077 8.28283 5.66077C8.28283 6.0654 8.28283 6.45777 8.28283 6.86649C7.88607 6.86649 7.48521 6.86649 7.07617 6.86649C7.07617 6.46594 7.07617 6.07357 7.07617 5.66077Z" fill="#005595"/>
<path d="M5.45648 14.1294C5.45648 14.5381 5.45648 14.9305 5.45648 15.3351C5.05562 15.3351 4.66294 15.3351 4.25391 15.3351C4.25391 14.9387 4.25391 14.5422 4.25391 14.1294C4.65067 14.1294 5.03926 14.1294 5.45648 14.1294Z" fill="#005595"/>
<path d="M8.28283 15.3393C7.87789 15.3393 7.48112 15.3393 7.07617 15.3393C7.07617 14.9387 7.07617 14.5464 7.07617 14.1335C7.47294 14.1335 7.86971 14.1335 8.28283 14.1335C8.28283 14.53 8.28283 14.9224 8.28283 15.3393Z" fill="#005595"/>
<path d="M5.45666 8.48914C5.45666 8.89786 5.45666 9.29023 5.45666 9.69077C5.05171 9.69077 4.65904 9.69077 4.25 9.69077C4.25 9.28614 4.25 8.89377 4.25 8.48914C4.65086 8.48914 5.04353 8.48914 5.45666 8.48914Z" fill="#005595"/>
<path d="M7.07227 9.68668C7.07227 9.28205 7.07227 8.89377 7.07227 8.48914C7.47721 8.48914 7.87398 8.48914 8.28302 8.48914C8.28302 8.88559 8.28302 9.27796 8.28302 9.68668C7.88625 9.68668 7.48539 9.68668 7.07227 9.68668Z" fill="#005595"/>
<path d="M4.24609 12.5109C4.24609 12.1063 4.24609 11.718 4.24609 11.3134C4.64695 11.3134 5.04781 11.3134 5.45685 11.3134C5.45685 11.7139 5.45685 12.1063 5.45685 12.5109C5.05599 12.5109 4.66331 12.5109 4.24609 12.5109Z" fill="#005595"/>
<path d="M7.07617 12.5068C7.07617 12.1063 7.07617 11.7139 7.07617 11.3052C7.47703 11.3052 7.8738 11.3052 8.28283 11.3052C8.28283 11.7057 8.28283 12.0981 8.28283 12.5068C7.88198 12.5068 7.48521 12.5068 7.07617 12.5068Z" fill="#005595"/>
<path d="M12.7334 14.1254C13.1383 14.1254 13.5351 14.1254 13.9401 14.1254C13.9401 14.5259 13.9401 14.9183 13.9401 15.327C13.5433 15.327 13.1465 15.327 12.7334 15.327C12.7334 14.9346 12.7334 14.5423 12.7334 14.1254Z" fill="#005595"/>
<path d="M15.5596 14.1254C15.9645 14.1254 16.3572 14.1254 16.7621 14.1254C16.7621 14.5259 16.7621 14.9183 16.7621 15.327C16.3654 15.327 15.9686 15.327 15.5596 15.327C15.5596 14.9305 15.5596 14.5341 15.5596 14.1254Z" fill="#005595"/>
<path d="M13.9443 16.9578C13.9443 17.3665 13.9443 17.7548 13.9443 18.1594C13.5394 18.1594 13.1385 18.1594 12.7295 18.1594C12.7295 17.7589 12.7295 17.3665 12.7295 16.9578C13.1303 16.9578 13.5312 16.9578 13.9443 16.9578Z" fill="#005595"/>
<path d="M16.7629 18.1676C16.358 18.1676 15.9694 18.1676 15.5645 18.1676C15.5645 17.767 15.5645 17.3665 15.5645 16.9578C15.9571 16.9578 16.3498 16.9578 16.7629 16.9578C16.7629 17.3501 16.7629 17.7466 16.7629 18.1676Z" fill="#005595"/>
<path d="M12.7373 8.48499C13.1382 8.48499 13.5308 8.48499 13.9399 8.48499C13.9399 8.88144 13.9399 9.27381 13.9399 9.68253C13.5472 9.68253 13.1504 9.68253 12.7373 9.68253C12.7373 9.29016 12.7373 8.8937 12.7373 8.48499Z" fill="#005595"/>
<path d="M15.5557 9.6826C15.5557 9.28205 15.5557 8.89377 15.5557 8.48914C15.9606 8.48914 16.3574 8.48914 16.7664 8.48914C16.7664 8.88968 16.7664 9.27388 16.7664 9.6826C16.3697 9.6826 15.9729 9.6826 15.5557 9.6826Z" fill="#005595"/>
<path d="M12.7295 12.5068C12.7295 12.1063 12.7295 11.718 12.7295 11.3134C13.1303 11.3134 13.5271 11.3134 13.9402 11.3134C13.9402 11.7057 13.9402 12.0981 13.9402 12.5068C13.5435 12.5068 13.1467 12.5068 12.7295 12.5068Z" fill="#005595"/>
<path d="M15.5645 11.3052C15.9612 11.3052 16.3539 11.3052 16.7629 11.3052C16.7629 11.7057 16.7629 12.094 16.7629 12.5068C16.3703 12.5068 15.9776 12.5068 15.5645 12.5068C15.5645 12.1144 15.5645 11.718 15.5645 11.3052Z" fill="#005595"/>
</svg>
