<svg width="17" height="28" viewBox="0 0 17 28" fill="none" xmlns="http://www.w3.org/2000/svg">
<path d="M16.0195 2.8291C16.0195 3.06608 15.9284 3.27572 15.7461 3.45801L5 14.2041L15.7461 24.9502C15.9284 25.1325 16.0195 25.3421 16.0195 25.5791C16.0195 25.8161 15.9284 26.0257 15.7461 26.208L14.3789 27.5752C14.1966 27.7575 13.987 27.8486 13.75 27.8486C13.513 27.8486 13.3034 27.7575 13.1211 27.5752L0.378906 14.833C0.196615 14.6507 0.105469 14.4411 0.105469 14.2041C0.105469 13.9671 0.196615 13.7575 0.378906 13.5752L13.1211 0.833008C13.3034 0.650716 13.513 0.55957 13.75 0.55957C13.987 0.55957 14.1966 0.650716 14.3789 0.833008L15.7461 2.2002C15.9284 2.38249 16.0195 2.59212 16.0195 2.8291Z" fill="#005595"/>
</svg>
