<svg width="138" height="21" viewBox="0 0 138 21" fill="none" xmlns="http://www.w3.org/2000/svg">
<path d="M0 8.26722C0.192671 8.61381 0.522042 8.82842 0.808357 9.08112C2.34488 10.4369 3.88733 11.7863 5.43246 13.1324C5.54441 13.2301 5.5584 13.3245 5.52987 13.45C5.04174 15.6004 4.5536 17.7513 4.06654 19.9023C4.03694 20.0337 4.00142 20.1668 3.9955 20.3004C3.97505 20.757 4.41152 21.0478 4.81462 20.8294C5.34205 20.5434 5.85279 20.2274 6.36891 19.9216C7.857 19.0412 9.34508 18.1623 10.8294 17.2754C10.9613 17.1966 11.0495 17.2095 11.1722 17.2824C12.6576 18.1672 14.1457 19.0471 15.6333 19.9275C15.6763 19.9527 15.7215 19.9742 15.7657 19.9972C15.7608 19.7558 15.7355 19.5138 15.7312 19.2745C15.7183 18.613 15.6263 17.9611 15.5542 17.3055C15.4546 16.402 15.2748 15.5124 15.059 14.6331C14.7469 13.362 14.3265 12.1238 13.8137 10.916C13.2416 9.56829 12.5511 8.28546 11.7615 7.05414C11.1044 6.02991 10.3655 5.06417 9.57274 4.14189C9.42097 3.96537 9.30418 3.73627 9.06469 3.64185C8.70356 4.37688 8.40918 5.14143 8.07658 5.88934C7.95172 6.16941 7.82955 6.45055 7.71169 6.7333C7.66648 6.84114 7.61104 6.89425 7.47973 6.90552C6.07882 7.02731 4.679 7.15876 3.27864 7.2886C2.38309 7.37176 1.48809 7.46029 0.592544 7.53915C0.301385 7.56437 0.128089 7.72962 0 7.9673C0 8.06709 0 8.16742 0 8.26722Z" fill="#F9A533"/>
<path d="M9.06418 3.64194C9.30367 3.73636 9.42046 3.96546 9.57223 4.14198C10.365 5.06426 11.1039 6.03 11.761 7.05423C12.5506 8.28501 13.2411 9.56838 13.8131 10.9161C14.326 12.1238 14.7464 13.3616 15.0585 14.6332C15.2743 15.5125 15.4541 16.4021 15.5536 17.3056C15.6258 17.9607 15.7178 18.6126 15.7307 19.2746C15.7355 19.5139 15.7603 19.7559 15.7651 19.9973C16.2296 20.2769 16.6865 20.5698 17.1607 20.8322C17.6063 21.079 18.067 20.6814 18.0035 20.2817C17.9233 19.7752 17.7925 19.2805 17.6806 18.7816C17.2807 16.9923 16.8711 15.2056 16.4616 13.4185C16.4336 13.2967 16.4696 13.2189 16.5601 13.14C17.4696 12.346 18.3764 11.5487 19.2849 10.753C20.1126 10.0282 20.9425 9.30602 21.7686 8.57903C21.9839 8.38963 22.0506 8.14713 21.9618 7.92608C21.8607 7.67391 21.6664 7.56178 21.3989 7.5371C20.3823 7.44428 19.3672 7.34127 18.3506 7.24738C17.5046 7.16904 16.658 7.09983 15.812 7.02418C15.3642 6.98394 14.917 6.93404 14.4687 6.90024C14.3551 6.89166 14.3287 6.82513 14.2948 6.74626C13.6113 5.16352 12.9273 3.58131 12.2438 1.9991C12.0151 1.46955 11.7869 0.939465 11.5576 0.409916C11.4505 0.161505 11.2831 -0.00159777 10.9909 1.18058e-05C10.7083 0.00162138 10.5426 0.159896 10.4387 0.399722C9.99094 1.43253 9.54532 2.46588 9.10078 3.49976C9.08194 3.54429 9.07602 3.59418 9.06418 3.64194Z" fill="#FFBD48"/>
<path d="M29 8.26722C29.1927 8.61381 29.522 8.82842 29.8084 9.08112C31.3449 10.4369 32.8873 11.7863 34.4325 13.1324C34.5444 13.2301 34.5584 13.3245 34.5299 13.45C34.0417 15.6004 33.5536 17.7513 33.0665 19.9023C33.0369 20.0337 33.0014 20.1668 32.9955 20.3004C32.9751 20.757 33.4115 21.0478 33.8146 20.8294C34.342 20.5434 34.8528 20.2274 35.3689 19.9216C36.857 19.0412 38.3451 18.1623 39.8294 17.2754C39.9613 17.1966 40.0495 17.2095 40.1722 17.2824C41.6576 18.1672 43.1457 19.0471 44.6333 19.9275C44.6763 19.9527 44.7215 19.9742 44.7657 19.9972C44.7608 19.7558 44.7355 19.5138 44.7312 19.2745C44.7183 18.613 44.6263 17.9611 44.5542 17.3055C44.4546 16.402 44.2748 15.5124 44.059 14.6331C43.7469 13.362 43.3265 12.1238 42.8137 10.916C42.2416 9.56829 41.5511 8.28546 40.7615 7.05414C40.1044 6.02991 39.3655 5.06417 38.5727 4.14189C38.421 3.96537 38.3042 3.73627 38.0647 3.64185C37.7036 4.37688 37.4092 5.14143 37.0766 5.88934C36.9517 6.16941 36.8295 6.45055 36.7117 6.7333C36.6665 6.84114 36.611 6.89425 36.4797 6.90552C35.0788 7.02731 33.679 7.15876 32.2786 7.2886C31.3831 7.37176 30.4881 7.46029 29.5925 7.53915C29.3014 7.56437 29.1281 7.72962 29 7.9673C29 8.06709 29 8.16742 29 8.26722Z" fill="#F9A533"/>
<path d="M38.0642 3.64194C38.3037 3.73636 38.4205 3.96546 38.5722 4.14198C39.365 5.06426 40.1039 6.03 40.761 7.05423C41.5506 8.28501 42.2411 9.56838 42.8131 10.9161C43.326 12.1238 43.7464 13.3616 44.0585 14.6332C44.2743 15.5125 44.4541 16.4021 44.5536 17.3056C44.6258 17.9607 44.7178 18.6126 44.7307 19.2746C44.7355 19.5139 44.7603 19.7559 44.7651 19.9973C45.2296 20.2769 45.6865 20.5698 46.1607 20.8322C46.6063 21.079 47.067 20.6814 47.0035 20.2817C46.9233 19.7752 46.7925 19.2805 46.6806 18.7816C46.2807 16.9923 45.8711 15.2056 45.4616 13.4185C45.4336 13.2967 45.4696 13.2189 45.5601 13.14C46.4696 12.346 47.3764 11.5487 48.2849 10.753C49.1126 10.0282 49.9425 9.30602 50.7686 8.57903C50.9839 8.38963 51.0506 8.14713 50.9618 7.92608C50.8607 7.67391 50.6664 7.56178 50.3989 7.5371C49.3823 7.44428 48.3672 7.34127 47.3506 7.24738C46.5046 7.16904 45.658 7.09983 44.812 7.02418C44.3642 6.98394 43.917 6.93404 43.4687 6.90024C43.3551 6.89166 43.3287 6.82513 43.2948 6.74626C42.6113 5.16352 41.9273 3.58131 41.2438 1.9991C41.0151 1.46955 40.7869 0.939465 40.5576 0.409916C40.4505 0.161505 40.2831 -0.00159777 39.9909 1.18058e-05C39.7083 0.00162138 39.5426 0.159896 39.4387 0.399722C38.9909 1.43253 38.5453 2.46588 38.1008 3.49976C38.0819 3.54429 38.076 3.59418 38.0642 3.64194Z" fill="#FFBD48"/>
<path d="M58 8.26722C58.1927 8.61381 58.522 8.82842 58.8084 9.08112C60.3449 10.4369 61.8873 11.7863 63.4325 13.1324C63.5444 13.2301 63.5584 13.3245 63.5299 13.45C63.0417 15.6004 62.5536 17.7513 62.0665 19.9023C62.0369 20.0337 62.0014 20.1668 61.9955 20.3004C61.9751 20.757 62.4115 21.0478 62.8146 20.8294C63.342 20.5434 63.8528 20.2274 64.3689 19.9216C65.857 19.0412 67.3451 18.1623 68.8294 17.2754C68.9613 17.1966 69.0495 17.2095 69.1722 17.2824C70.6576 18.1672 72.1457 19.0471 73.6333 19.9275C73.6763 19.9527 73.7215 19.9742 73.7657 19.9972C73.7608 19.7558 73.7355 19.5138 73.7312 19.2745C73.7183 18.613 73.6263 17.9611 73.5542 17.3055C73.4546 16.402 73.2748 15.5124 73.059 14.6331C72.7469 13.362 72.3265 12.1238 71.8137 10.916C71.2416 9.56829 70.5511 8.28546 69.7615 7.05414C69.1044 6.02991 68.3655 5.06417 67.5727 4.14189C67.421 3.96537 67.3042 3.73627 67.0647 3.64185C66.7036 4.37688 66.4092 5.14143 66.0766 5.88934C65.9517 6.16941 65.8295 6.45055 65.7117 6.7333C65.6665 6.84114 65.611 6.89425 65.4797 6.90552C64.0788 7.02731 62.679 7.15876 61.2786 7.2886C60.3831 7.37176 59.4881 7.46029 58.5925 7.53915C58.3014 7.56437 58.1281 7.72962 58 7.9673C58 8.06709 58 8.16742 58 8.26722Z" fill="#F9A533"/>
<path d="M67.0642 3.64194C67.3037 3.73636 67.4205 3.96546 67.5722 4.14198C68.365 5.06426 69.1039 6.03 69.761 7.05423C70.5506 8.28501 71.2411 9.56838 71.8131 10.9161C72.326 12.1238 72.7464 13.3616 73.0585 14.6332C73.2743 15.5125 73.4541 16.4021 73.5536 17.3056C73.6258 17.9607 73.7178 18.6126 73.7307 19.2746C73.7355 19.5139 73.7603 19.7559 73.7651 19.9973C74.2296 20.2769 74.6865 20.5698 75.1607 20.8322C75.6063 21.079 76.067 20.6814 76.0035 20.2817C75.9233 19.7752 75.7925 19.2805 75.6806 18.7816C75.2807 16.9923 74.8711 15.2056 74.4616 13.4185C74.4336 13.2967 74.4696 13.2189 74.5601 13.14C75.4696 12.346 76.3764 11.5487 77.2849 10.753C78.1126 10.0282 78.9425 9.30602 79.7686 8.57903C79.9839 8.38963 80.0506 8.14713 79.9618 7.92608C79.8607 7.67391 79.6664 7.56178 79.3989 7.5371C78.3823 7.44428 77.3672 7.34127 76.3506 7.24738C75.5046 7.16904 74.658 7.09983 73.812 7.02418C73.3642 6.98394 72.917 6.93404 72.4687 6.90024C72.3551 6.89166 72.3287 6.82513 72.2948 6.74626C71.6113 5.16352 70.9273 3.58131 70.2438 1.9991C70.0151 1.46955 69.7869 0.939465 69.5576 0.409916C69.4505 0.161505 69.2831 -0.00159777 68.9909 1.18058e-05C68.7083 0.00162138 68.5426 0.159896 68.4387 0.399722C67.9909 1.43253 67.5453 2.46588 67.1008 3.49976C67.0819 3.54429 67.076 3.59418 67.0642 3.64194Z" fill="#FFBD48"/>
<path d="M87 8.26722C87.1927 8.61381 87.522 8.82842 87.8084 9.08112C89.3449 10.4369 90.8873 11.7863 92.4325 13.1324C92.5444 13.2301 92.5584 13.3245 92.5299 13.45C92.0417 15.6004 91.5536 17.7513 91.0665 19.9023C91.0369 20.0337 91.0014 20.1668 90.9955 20.3004C90.9751 20.757 91.4115 21.0478 91.8146 20.8294C92.342 20.5434 92.8528 20.2274 93.3689 19.9216C94.857 19.0412 96.3451 18.1623 97.8294 17.2754C97.9613 17.1966 98.0495 17.2095 98.1722 17.2824C99.6576 18.1672 101.146 19.0471 102.633 19.9275C102.676 19.9527 102.722 19.9742 102.766 19.9972C102.761 19.7558 102.736 19.5138 102.731 19.2745C102.718 18.613 102.626 17.9611 102.554 17.3055C102.455 16.402 102.275 15.5124 102.059 14.6331C101.747 13.362 101.327 12.1238 100.814 10.916C100.242 9.56829 99.5511 8.28546 98.7615 7.05414C98.1044 6.02991 97.3655 5.06417 96.5727 4.14189C96.421 3.96537 96.3042 3.73627 96.0647 3.64185C95.7036 4.37688 95.4092 5.14143 95.0766 5.88934C94.9517 6.16941 94.8295 6.45055 94.7117 6.7333C94.6665 6.84114 94.611 6.89425 94.4797 6.90552C93.0788 7.02731 91.679 7.15876 90.2786 7.2886C89.3831 7.37176 88.4881 7.46029 87.5925 7.53915C87.3014 7.56437 87.1281 7.72962 87 7.9673C87 8.06709 87 8.16742 87 8.26722Z" fill="#F9A533"/>
<path d="M96.0642 3.64194C96.3037 3.73636 96.4205 3.96546 96.5722 4.14198C97.365 5.06426 98.1039 6.03 98.761 7.05423C99.5506 8.28501 100.241 9.56838 100.813 10.9161C101.326 12.1238 101.746 13.3616 102.059 14.6332C102.274 15.5125 102.454 16.4021 102.554 17.3056C102.626 17.9607 102.718 18.6126 102.731 19.2746C102.736 19.5139 102.76 19.7559 102.765 19.9973C103.23 20.2769 103.687 20.5698 104.161 20.8322C104.606 21.079 105.067 20.6814 105.003 20.2817C104.923 19.7752 104.792 19.2805 104.681 18.7816C104.281 16.9923 103.871 15.2056 103.462 13.4185C103.434 13.2967 103.47 13.2189 103.56 13.14C104.47 12.346 105.376 11.5487 106.285 10.753C107.113 10.0282 107.943 9.30602 108.769 8.57903C108.984 8.38963 109.051 8.14713 108.962 7.92608C108.861 7.67391 108.666 7.56178 108.399 7.5371C107.382 7.44428 106.367 7.34127 105.351 7.24738C104.505 7.16904 103.658 7.09983 102.812 7.02418C102.364 6.98394 101.917 6.93404 101.469 6.90024C101.355 6.89166 101.329 6.82513 101.295 6.74626C100.611 5.16352 99.9273 3.58131 99.2438 1.9991C99.0151 1.46955 98.7869 0.939465 98.5576 0.409916C98.4505 0.161505 98.2831 -0.00159777 97.9909 1.18058e-05C97.7083 0.00162138 97.5426 0.159896 97.4387 0.399722C96.9909 1.43253 96.5453 2.46588 96.1008 3.49976C96.0819 3.54429 96.076 3.59418 96.0642 3.64194Z" fill="#FFBD48"/>
<path d="M116 8.26722C116.193 8.61381 116.522 8.82842 116.808 9.08112C118.345 10.4369 119.887 11.7863 121.432 13.1324C121.544 13.2301 121.558 13.3245 121.53 13.45C121.042 15.6004 120.554 17.7513 120.067 19.9023C120.037 20.0337 120.001 20.1668 119.996 20.3004C119.975 20.757 120.412 21.0478 120.815 20.8294C121.342 20.5434 121.853 20.2274 122.369 19.9216C123.857 19.0412 125.345 18.1623 126.829 17.2754C126.961 17.1966 127.05 17.2095 127.172 17.2824C128.658 18.1672 130.146 19.0471 131.633 19.9275C131.676 19.9527 131.722 19.9742 131.766 19.9972C131.761 19.7558 131.736 19.5138 131.731 19.2745C131.718 18.613 131.626 17.9611 131.554 17.3055C131.455 16.402 131.275 15.5124 131.059 14.6331C130.747 13.362 130.327 12.1238 129.814 10.916C129.242 9.56829 128.551 8.28546 127.762 7.05414C127.104 6.02991 126.365 5.06417 125.573 4.14189C125.421 3.96537 125.304 3.73627 125.065 3.64185C124.704 4.37688 124.409 5.14143 124.077 5.88934C123.952 6.16941 123.83 6.45055 123.712 6.7333C123.666 6.84114 123.611 6.89425 123.48 6.90552C122.079 7.02731 120.679 7.15876 119.279 7.2886C118.383 7.37176 117.488 7.46029 116.593 7.53915C116.301 7.56437 116.128 7.72962 116 7.9673C116 8.06709 116 8.16742 116 8.26722Z" fill="#F9A533"/>
<path d="M125.064 3.64194C125.304 3.73636 125.42 3.96546 125.572 4.14198C126.365 5.06426 127.104 6.03 127.761 7.05423C128.551 8.28501 129.241 9.56838 129.813 10.9161C130.326 12.1238 130.746 13.3616 131.059 14.6332C131.274 15.5125 131.454 16.4021 131.554 17.3056C131.626 17.9607 131.718 18.6126 131.731 19.2746C131.736 19.5139 131.76 19.7559 131.765 19.9973C132.23 20.2769 132.687 20.5698 133.161 20.8322C133.606 21.079 134.067 20.6814 134.003 20.2817C133.923 19.7752 133.792 19.2805 133.681 18.7816C133.281 16.9923 132.871 15.2056 132.462 13.4185C132.434 13.2967 132.47 13.2189 132.56 13.14C133.47 12.346 134.376 11.5487 135.285 10.753C136.113 10.0282 136.943 9.30602 137.769 8.57903C137.984 8.38963 138.051 8.14713 137.962 7.92608C137.861 7.67391 137.666 7.56178 137.399 7.5371C136.382 7.44428 135.367 7.34127 134.351 7.24738C133.505 7.16904 132.658 7.09983 131.812 7.02418C131.364 6.98394 130.917 6.93404 130.469 6.90024C130.355 6.89166 130.329 6.82513 130.295 6.74626C129.611 5.16352 128.927 3.58131 128.244 1.9991C128.015 1.46955 127.787 0.939465 127.558 0.409916C127.451 0.161505 127.283 -0.00159777 126.991 1.18058e-05C126.708 0.00162138 126.543 0.159896 126.439 0.399722C125.991 1.43253 125.545 2.46588 125.101 3.49976C125.082 3.54429 125.076 3.59418 125.064 3.64194Z" fill="#FFBD48"/>
</svg>
